<svg id="Layer_1" data-name="Layer 1" xmlns="http://www.w3.org/2000/svg" viewBox="0 0 45.43 22.8"><path d="M47.72,16.71S27,31.94,19.42,33.37c-5.56,1-4.48-2.17-4.48-2.17s4.4-10.3,11.15-16c0,0-6.79,8.65-4.64,11.55C23.55,30.47,46.06,17.41,47.72,16.71Z" transform="translate(-2.28 -13.6)" style="fill:#f7921f"/><path d="M14.82,14.83l.06,16.59L29.63,18.76s-6.87,5.48-11,3.81S14.82,14.83,14.82,14.83Z" transform="translate(-2.28 -13.6)" style="fill:#23201d"/><path d="M14.15,29V13.6H2.28S12.52,13.4,14.15,29Z" transform="translate(-2.28 -13.6)" style="fill:#929497"/><path d="M12,16a.5.5,0,0,1-.5-.5A.5.5,0,0,1,12,15a.51.51,0,0,1,.5.51A.5.5,0,0,1,12,16Z" transform="translate(-2.28 -13.6)" style="fill:#dd231d"/><path d="M12,14.48a1,1,0,1,0,1,1,1,1,0,0,0-1-1Z" transform="translate(-2.28 -13.6)" style="fill:#fff"/><path d="M14.58,34.84h-.67v-.19h1.64v.19h-.68v1.53h-.29Z" transform="translate(-2.28 -13.6)" style="fill:#929497"/><path d="M15.76,34.56h.29v.77h0a.51.51,0,0,1,.21-.16.83.83,0,0,1,.29-.06.51.51,0,0,1,.56.53v.73h-.29v-.71a.33.33,0,0,0-.37-.36.41.41,0,0,0-.39.22.18.18,0,0,0,0,.11v.74h-.29Z" transform="translate(-2.28 -13.6)" style="fill:#929497"/><path d="M17.75,35.8c0,.3.25.42.54.42a1.18,1.18,0,0,0,.44-.06l.05.16a1.45,1.45,0,0,1-.53.08c-.49,0-.78-.25-.78-.62a.68.68,0,0,1,.75-.67.58.58,0,0,1,.66.58c0,.05,0,.08,0,.11Zm.85-.16a.36.36,0,0,0-.41-.37.42.42,0,0,0-.44.37Z" transform="translate(-2.28 -13.6)" style="fill:#929497"/><path d="M20.31,36.37l-.72-1.72h.3l.35.85a5.78,5.78,0,0,1,.24.64h0c.07-.2.16-.41.26-.64l.37-.85h.31l-.8,1.72Z" transform="translate(-2.28 -13.6)" style="fill:#dd231d"/><path d="M21.7,35.8c0,.3.26.42.55.42a1.25,1.25,0,0,0,.44-.06l0,.16a1.54,1.54,0,0,1-.53.08c-.49,0-.79-.25-.79-.62a.68.68,0,0,1,.75-.67.58.58,0,0,1,.66.58c0,.05,0,.08,0,.11Zm.85-.16a.36.36,0,0,0-.4-.37.43.43,0,0,0-.45.37Z" transform="translate(-2.28 -13.6)" style="fill:#dd231d"/><path d="M23.53,34.78v.36H24v.17h-.42V36c0,.16.06.24.22.24h.17v.17a.79.79,0,0,1-.26,0,.48.48,0,0,1-.31-.1.38.38,0,0,1-.11-.32v-.67H23v-.17h.25v-.3Z" transform="translate(-2.28 -13.6)" style="fill:#dd231d"/><path d="M26.13,35.57h-.86v.62h1v.18H25V34.65h1.2v.19h-.91v.54h.86Z" transform="translate(-2.28 -13.6)" style="fill:#929497"/><path d="M26.72,35.14l.23.26.16.2h0l.16-.2.22-.26h.31l-.54.59.56.64H27.5l-.23-.28-.17-.21h0l-.17.21-.23.28h-.32l.57-.63-.54-.6Z" transform="translate(-2.28 -13.6)" style="fill:#929497"/><path d="M29.19,36.33a1.3,1.3,0,0,1-.45.07c-.48,0-.79-.25-.79-.63s.33-.66.85-.66a1.2,1.2,0,0,1,.4.07l-.06.17a.86.86,0,0,0-.34-.06c-.36,0-.56.21-.56.47s.23.46.55.46a1.07,1.07,0,0,0,.36-.06Z" transform="translate(-2.28 -13.6)" style="fill:#929497"/><path d="M29.67,35.8c0,.3.26.42.55.42a1.22,1.22,0,0,0,.44-.06l.05.16a1.5,1.5,0,0,1-.53.08c-.49,0-.78-.25-.78-.62a.67.67,0,0,1,.74-.67.58.58,0,0,1,.66.58.34.34,0,0,1,0,.11Zm.85-.16c0-.15-.07-.37-.4-.37a.42.42,0,0,0-.44.37Z" transform="translate(-2.28 -13.6)" style="fill:#929497"/><path d="M32.49,36c0,.12,0,.24,0,.33h-.25l0-.2h0a.66.66,0,0,1-.53.23.5.5,0,0,1-.55-.54v-.72h.29v.68c0,.24.09.39.35.39a.44.44,0,0,0,.39-.2.36.36,0,0,0,0-.11v-.76h.29Z" transform="translate(-2.28 -13.6)" style="fill:#929497"/><path d="M33.32,34.78v.36h.41v.17h-.41V36c0,.16.06.24.22.24h.16l0,.17a.88.88,0,0,1-.26,0,.48.48,0,0,1-.31-.1A.38.38,0,0,1,33,36v-.67h-.25v-.17H33v-.3Z" transform="translate(-2.28 -13.6)" style="fill:#929497"/><path d="M34.38,34.79c0,.08-.07.14-.18.14a.14.14,0,1,1,0-.28C34.31,34.65,34.38,34.71,34.38,34.79Zm-.32,1.58V35.14h.29v1.23Z" transform="translate(-2.28 -13.6)" style="fill:#929497"/><path d="M34.94,35.14l.31.69a1.66,1.66,0,0,1,.13.32h0a2.84,2.84,0,0,1,.14-.32l.31-.69h.3l-.63,1.23h-.27l-.61-1.23Z" transform="translate(-2.28 -13.6)" style="fill:#929497"/><path d="M36.54,35.8c0,.3.25.42.54.42a1.18,1.18,0,0,0,.44-.06l0,.16a1.45,1.45,0,0,1-.53.08c-.49,0-.78-.25-.78-.62a.68.68,0,0,1,.75-.67.58.58,0,0,1,.66.58c0,.05,0,.08,0,.11Zm.85-.16a.36.36,0,0,0-.4-.37.43.43,0,0,0-.45.37Z" transform="translate(-2.28 -13.6)" style="fill:#929497"/></svg>